# xmcd
#
# Track frame offsets: 
#        150
#        14073
#        29305
#        44209
#        63898
#        78382
#        97683
#        110547
#        126934
#        140898
#        146731
#        162520
#        175854
#        186415
#        196652
#        209601
#        221726
#        236881
#        248685
#        264180
#
# Disc length: 3759 seconds
#
# Revision: 2
# Processed by: cddbd v1.5.2PL0 Copyright (c) Steve Scherf et al.
# Submitted via: ExactAudioCopy v1.0b3
#
DISCID=310ead14
DTITLE=Hot Club Of Cowtown, The - The Best Of The Hot Club Of Cowtown
DYEAR=2008
DGENRE=Western Swing
TTITLE0=Ida Red (Live)
TTITLE1=I Can't Believe You're In Love With Me
TTITLE2=Forget-Me-Nots
TTITLE3=It Stops With Me
TTITLE4=Chip Away The Stone
TTITLE5=Star Dust
TTITLE6=Secret Of Mine
TTITLE7=Deed I Do (Live)
TTITLE8=Sleep
TTITLE9=Way Down Yonder In The Cornfield
TTITLE10=Always And Always
TTITLE11=Fuli Tschai ("Bad Girl")
TTITLE12=I'd Understand Why
TTITLE13=Cherokee Shuffle
TTITLE14=I Had Someone Else
TTITLE15=Emily
TTITLE16=Tchavolo Swing
TTITLE17=Exactly Like You
TTITLE18=When I Lost You
TTITLE19=Orange Blossom Special (Live)
EXTD=
EXTT0=
EXTT1=
EXTT2=
EXTT3=
EXTT4=
EXTT5=
EXTT6=
EXTT7=
EXTT8=
EXTT9=
EXTT10=
EXTT11=
EXTT12=
EXTT13=
EXTT14=
EXTT15=
EXTT16=
EXTT17=
EXTT18=
EXTT19=
PLAYORDER=
